# xmcd CD database file
#
# Track frame offsets:
#	150
#	13280
#	35629
#	54187
#	78673
#	107380
#	125414
#	152317
#	176620
#	180692
#	208118
#	259892
#	273947
#
# Disc length: 3939 seconds
#
# Revision: 0
# Processed by: cddbd v1.5.1PL0 Copyright (c) Steve Scherf et al.
# Submitted via: CDex 1.50beta10
#
DISCID=aa0f610d
DTITLE=Mel Torme - The Classic Concert Live
DYEAR=2005
DGENRE=Jazz
TTITLE0=I've Heard That Song Before
TTITLE1=I Sent For You Yesterday and Here You Come Today
TTITLE2=Jeru
TTITLE3=Duke Ellington Medley
TTITLE4=What Are You Doing The Rest Of Your Life
TTITLE5=Walkin' Shoes
TTITLE6='Round Midnight
TTITLE7=Line For Lyons
TTITLE8=Talk
TTITLE9=Wave - Agua De Beber
TTITLE10=Blues In The Night
TTITLE11=The Song Is Ended (But The Melody Lingers On)
TTITLE12=Lady Be Good
EXTD=YEAR: 2005
EXTT0=
EXTT1=
EXTT2=
EXTT3=
EXTT4=
EXTT5=
EXTT6=
EXTT7=
EXTT8=
EXTT9=
EXTT10=
EXTT11=
EXTT12=
PLAYORDER=
